# xmcd
#
# Track frame offsets:
#	150
#	13250
#	32551
#	44932
#	58869
#	70916
#	83820
#	97759
#	106352
#	123967
#	138937
#	159957
#
# Disc length: 2385 seconds
#
# Revision: 1
# Processed by: cddbd v1.5.2PL0 Copyright (c) Steve Scherf et al.
# Submitted via: audiograbber 1.83.01
#
DISCID=9c094f0c
DTITLE=Riccardo Fogli - 24 Grandi Successi CD2
DYEAR=1900
DGENRE=
TTITLE0=I Migliori Anni Della Nostra Vita
TTITLE1=Quella Carezza Della Sera
TTITLE2=L'Anno Che Verra'
TTITLE3=L'Emozione Non Ha Voce
TTITLE4=Io Vagabondo
TTITLE5=Vecchio Frak
TTITLE6=L'Arcobaleno
TTITLE7=Fatti Mandare Dalla Mamma
TTITLE8=Tu Non Sei Pui' Mia
TTITLE9=Please Love
TTITLE10=La Prima Notte D' Amore
TTITLE11=Per Lucia
EXTD=
EXTT0=
EXTT1=
EXTT2=
EXTT3=
EXTT4=
EXTT5=
EXTT6=
EXTT7=
EXTT8=
EXTT9=
EXTT10=
EXTT11=
PLAYORDER=
